<svg xmlns="http://www.w3.org/2000/svg" viewBox="0 0 800 600" width="800" height="600">
  <defs>
    <linearGradient id="bg" x1="0%" y1="0%" x2="100%" y2="100%">
      <stop offset="0%" style="stop-color:#f8f9fa;stop-opacity:1" />
      <stop offset="100%" style="stop-color:#e9ecef;stop-opacity:1" />
    </linearGradient>
    <linearGradient id="primary" x1="0%" y1="0%" x2="100%" y2="100%">
      <stop offset="0%" style="stop-color:#007bff;stop-opacity:1" />
      <stop offset="100%" style="stop-color:#0056b3;stop-opacity:1" />
    </linearGradient>
    <linearGradient id="secondary" x1="0%" y1="0%" x2="100%" y2="100%">
      <stop offset="0%" style="stop-color:#6c757d;stop-opacity:1" />
      <stop offset="100%" style="stop-color:#495057;stop-opacity:1" />
    </linearGradient>
  </defs>
  
  <!-- Background -->
  <rect width="800" height="600" fill="url(#bg)"/>
  
  <!-- Main illustration elements -->
  <!-- Computer/Device -->
  <rect x="250" y="200" width="300" height="200" rx="20" fill="url(#primary)" opacity="0.9"/>
  <rect x="270" y="220" width="260" height="140" rx="10" fill="white"/>
  <circle cx="400" cy="290" r="30" fill="url(#primary)" opacity="0.2"/>
  
  <!-- Screen content lines -->
  <rect x="290" y="240" width="120" height="8" rx="4" fill="url(#primary)" opacity="0.3"/>
  <rect x="290" y="260" width="180" height="6" rx="3" fill="url(#secondary)" opacity="0.3"/>
  <rect x="290" y="275" width="160" height="6" rx="3" fill="url(#secondary)" opacity="0.3"/>
  <rect x="290" y="290" width="140" height="6" rx="3" fill="url(#secondary)" opacity="0.3"/>
  
  <!-- Floating elements around the device -->
  <!-- Rocket -->
  <g transform="translate(150,100)">
    <ellipse cx="0" cy="30" rx="8" ry="20" fill="url(#primary)"/>
    <polygon points="-8,10 0,0 8,10" fill="url(#secondary)"/>
    <circle cx="0" cy="25" r="3" fill="white"/>
    <rect x="-2" y="50" width="4" height="10" fill="#ffc107"/>
  </g>
  
  <!-- Chart/Analytics -->
  <g transform="translate(600,150)">
    <rect x="0" y="30" width="40" height="40" rx="5" fill="white" stroke="url(#primary)" stroke-width="2"/>
    <rect x="5" y="50" width="6" height="15" fill="url(#primary)"/>
    <rect x="15" y="45" width="6" height="20" fill="url(#primary)"/>
    <rect x="25" y="40" width="6" height="25" fill="url(#primary)"/>
    <circle cx="35" cy="38" r="2" fill="#28a745"/>
  </g>
  
  <!-- Gear/Settings -->
  <g transform="translate(120,350)">
    <circle cx="20" cy="20" r="15" fill="none" stroke="url(#secondary)" stroke-width="3"/>
    <circle cx="20" cy="20" r="6" fill="url(#secondary)"/>
    <rect x="18" y="2" width="4" height="8" fill="url(#secondary)"/>
    <rect x="18" y="30" width="4" height="8" fill="url(#secondary)"/>
    <rect x="2" y="18" width="8" height="4" fill="url(#secondary)"/>
    <rect x="30" y="18" width="8" height="4" fill="url(#secondary)"/>
  </g>
  
  <!-- Team/Users -->
  <g transform="translate(650,400)">
    <circle cx="15" cy="15" r="8" fill="url(#primary)"/>
    <circle cx="15" cy="30" r="12" fill="url(#secondary)" opacity="0.3"/>
    <circle cx="35" cy="15" r="8" fill="url(#primary)" opacity="0.7"/>
    <circle cx="35" cy="30" r="12" fill="url(#secondary)" opacity="0.2"/>
    <circle cx="25" cy="20" r="8" fill="url(#primary)" opacity="0.8"/>
    <circle cx="25" cy="35" r="12" fill="url(#secondary)" opacity="0.25"/>
  </g>
  
  <!-- Cloud -->
  <g transform="translate(100,50)">
    <ellipse cx="30" cy="20" rx="20" ry="12" fill="white" opacity="0.8"/>
    <ellipse cx="15" cy="25" rx="15" ry="10" fill="white" opacity="0.8"/>
    <ellipse cx="45" cy="25" rx="15" ry="10" fill="white" opacity="0.8"/>
  </g>
  
  <!-- Mobile device -->
  <g transform="translate(580,250)">
    <rect x="0" y="0" width="50" height="90" rx="10" fill="url(#primary)" opacity="0.8"/>
    <rect x="5" y="10" width="40" height="60" rx="5" fill="white"/>
    <circle cx="25" cy="80" r="4" fill="white"/>
    <!-- Mobile screen content -->
    <rect x="10" y="20" width="20" height="4" rx="2" fill="url(#primary)" opacity="0.4"/>
    <rect x="10" y="30" width="30" height="3" rx="1" fill="url(#secondary)" opacity="0.4"/>
    <rect x="10" y="38" width="25" height="3" rx="1" fill="url(#secondary)" opacity="0.4"/>
  </g>
  
  <!-- Decorative dots -->
  <circle cx="100" cy="500" r="4" fill="url(#primary)" opacity="0.3"/>
  <circle cx="700" cy="100" r="6" fill="url(#secondary)" opacity="0.2"/>
  <circle cx="50" cy="300" r="3" fill="url(#primary)" opacity="0.4"/>
  <circle cx="750" cy="500" r="5" fill="url(#secondary)" opacity="0.3"/>
  
  <!-- Abstract shapes -->
  <polygon points="200,500 220,480 240,500 220,520" fill="url(#primary)" opacity="0.2"/>
  <polygon points="650,50 665,35 680,50 665,65" fill="url(#secondary)" opacity="0.2"/>
</svg>